<?xml version="1.0" standalone="no"?>
<!DOCTYPE svg PUBLIC "-//W3C//DTD SVG 20010904//EN"
 "http://www.w3.org/TR/2001/REC-SVG-20010904/DTD/svg10.dtd">
<svg version="1.0" xmlns="http://www.w3.org/2000/svg"
 width="512.000000pt" height="512.000000pt" viewBox="0 0 512.000000 512.000000"
 preserveAspectRatio="xMidYMid meet">
<metadata>
Created by potrace 1.11, written by Peter Selinger 2001-2013
</metadata>
<g transform="translate(0.000000,512.000000) scale(0.100000,-0.100000)"
fill="#000000" stroke="none">
<path d="M2412 5090 c-28 -3 -68 -5 -87 -5 -19 1 -35 -2 -35 -5 0 -4 -15 -7
-32 -7 -18 0 -49 -3 -68 -7 -52 -9 -101 -17 -135 -21 -16 -2 -31 -4 -32 -5 -2
-2 -6 -3 -10 -5 -5 -1 -20 -5 -34 -9 -14 -4 -34 -9 -45 -11 -10 -2 -20 -4 -21
-5 -2 -2 -7 -4 -13 -5 -5 -1 -12 -4 -15 -5 -3 -1 -13 -3 -22 -5 -10 -1 -29 -6
-43 -12 -14 -6 -28 -9 -32 -6 -5 2 -8 -1 -8 -6 0 -6 -3 -10 -7 -10 -5 1 -10 1
-13 -1 -3 -1 -16 -3 -29 -6 -14 -2 -30 -9 -36 -14 -7 -5 -15 -7 -18 -3 -4 3
-7 1 -7 -5 0 -7 -3 -11 -7 -10 -15 3 -63 -14 -63 -23 0 -5 -7 -6 -15 -3 -8 4
-15 1 -15 -7 0 -7 -3 -10 -6 -6 -4 3 -30 -6 -58 -20 -28 -15 -57 -28 -65 -29
-8 -2 -17 -6 -20 -11 -3 -4 -27 -18 -53 -31 -26 -13 -50 -27 -53 -33 -4 -5
-11 -7 -16 -4 -5 4 -9 1 -9 -4 0 -6 -7 -11 -15 -11 -8 0 -15 -4 -15 -10 0 -5
-7 -10 -15 -10 -8 0 -15 -4 -15 -10 0 -5 -3 -9 -8 -9 -19 3 -33 -2 -27 -11 3
-5 1 -10 -6 -10 -10 0 -135 -83 -149 -100 -3 -3 -29 -23 -57 -45 -29 -21 -53
-43 -53 -47 0 -4 -7 -8 -16 -8 -8 0 -12 -4 -9 -10 3 -5 1 -10 -5 -10 -13 0
-240 -225 -240 -237 0 -5 -9 -14 -20 -21 -11 -7 -20 -16 -20 -21 0 -6 -14 -25
-30 -43 -17 -18 -45 -54 -61 -80 -17 -27 -35 -48 -40 -48 -5 0 -9 -9 -9 -20 0
-11 -5 -20 -10 -20 -6 0 -16 -12 -23 -27 -6 -16 -20 -37 -29 -47 -17 -18 -22
-32 -15 -39 1 -1 -4 -9 -11 -17 -33 -37 -128 -220 -114 -220 4 0 2 -4 -4 -8
-5 -4 -23 -38 -38 -77 -16 -38 -35 -86 -42 -105 -8 -19 -16 -45 -19 -58 -2
-12 -7 -27 -10 -32 -6 -10 -43 -137 -50 -173 -3 -10 -7 -27 -10 -38 -4 -10 -7
-32 -7 -49 -1 -16 -4 -30 -9 -30 -4 0 -6 -8 -5 -17 2 -10 -1 -35 -6 -56 -9
-42 -17 -110 -23 -195 -2 -30 -6 -60 -9 -67 -3 -8 0 -16 7 -19 7 -2 7 -5 2 -5
-17 -2 -8 -351 9 -380 4 -6 2 -11 -4 -11 -6 0 -8 -5 -4 -11 4 -7 8 -24 10 -38
5 -45 13 -95 18 -121 19 -89 27 -127 30 -145 2 -11 9 -32 15 -47 6 -16 9 -28
6 -28 -2 0 2 -18 10 -40 8 -22 12 -40 8 -40 -3 0 0 -6 6 -13 6 -8 8 -17 4 -20
-3 -4 -1 -7 5 -7 7 0 11 -3 11 -7 -1 -5 0 -10 1 -13 1 -3 3 -13 5 -23 2 -10 7
-26 11 -35 4 -9 8 -19 8 -22 8 -30 41 -100 48 -100 5 0 7 -4 4 -8 -3 -5 1 -20
9 -35 7 -14 11 -28 7 -31 -3 -3 1 -6 8 -6 7 0 10 -3 7 -7 -4 -3 0 -15 10 -25
9 -10 13 -18 9 -18 -4 0 2 -14 14 -30 12 -17 18 -30 13 -30 -4 0 -3 -4 2 -8 6
-4 18 -23 28 -42 36 -67 52 -95 64 -107 6 -7 15 -22 18 -33 3 -11 11 -20 16
-20 6 0 7 -4 4 -10 -3 -5 -2 -10 3 -10 5 0 23 -23 41 -50 18 -28 39 -57 47
-65 9 -8 13 -15 9 -15 -3 0 5 -11 19 -24 15 -13 26 -27 26 -31 0 -4 14 -20 31
-36 17 -16 28 -29 25 -29 -10 0 201 -208 269 -266 33 -28 92 -74 130 -102 39
-28 75 -55 80 -60 6 -4 39 -26 75 -47 36 -22 67 -42 70 -45 3 -3 34 -20 70
-38 36 -19 81 -42 100 -52 19 -10 53 -26 75 -35 22 -9 53 -23 69 -31 16 -8 32
-14 36 -14 4 0 25 -8 46 -17 37 -16 48 -19 77 -26 6 -1 17 -6 24 -10 6 -4 23
-8 37 -9 14 -1 26 -6 26 -10 0 -4 3 -7 8 -6 8 1 58 -10 82 -19 8 -4 18 -6 21
-5 4 1 22 -3 40 -9 19 -6 43 -12 54 -14 42 -8 121 -19 138 -19 9 0 17 -3 17
-6 0 -4 21 -6 46 -6 25 1 48 -2 49 -5 2 -3 27 -5 55 -5 27 1 50 -1 50 -4 0 -3
74 -5 165 -5 91 0 165 2 165 5 0 3 12 6 28 6 42 2 167 13 170 15 1 1 11 3 22
4 11 1 22 4 25 5 3 1 14 3 24 4 11 0 22 4 26 8 4 4 13 4 21 1 8 -3 20 0 28 6
7 6 16 8 19 4 4 -3 14 0 24 8 15 12 16 12 8 -1 -7 -12 -6 -13 6 -3 8 6 28 13
44 15 17 2 32 5 35 8 4 5 73 25 120 35 8 2 33 11 55 20 22 10 40 17 40 16 0
-1 17 5 37 13 21 9 40 16 43 16 3 0 54 23 113 52 59 28 110 51 115 50 4 -1 7
1 7 6 0 4 15 13 33 21 17 8 34 17 37 20 8 10 64 42 83 48 9 3 17 9 17 14 0 5
7 9 15 9 8 0 15 3 15 8 0 4 16 16 35 26 19 11 35 22 35 26 0 5 11 11 25 14 14
4 23 11 20 16 -3 6 1 10 9 10 9 0 21 9 28 20 7 11 17 20 23 20 5 0 31 20 58
44 26 24 47 42 47 39 0 -3 52 47 115 111 63 64 115 121 115 127 0 5 5 7 10 4
6 -3 10 -1 10 4 0 9 17 32 55 75 24 27 122 164 134 189 8 15 18 27 23 27 4 0
8 7 8 15 0 8 5 15 11 15 5 0 8 4 5 9 -3 4 3 16 14 26 11 10 17 21 15 26 -3 4
-1 10 4 14 6 3 31 47 56 98 25 50 51 97 57 104 6 7 8 13 5 13 -3 0 5 24 17 53
24 54 38 86 41 100 2 4 4 9 5 12 1 3 3 8 5 13 1 4 5 15 9 24 4 9 9 25 11 35 2
10 4 19 5 21 2 1 3 5 5 10 1 4 4 14 8 22 3 8 12 35 18 60 7 25 13 47 14 50 1
3 5 23 10 45 12 54 12 54 15 63 1 4 2 11 1 16 -1 4 4 14 10 22 9 11 9 14 0 14
-8 0 -9 5 -2 18 5 10 12 38 15 63 4 24 8 60 11 79 3 19 7 62 10 95 3 33 6 72
8 88 3 15 -1 27 -7 27 -7 0 -8 3 -1 8 9 6 13 257 5 257 -1 0 -4 25 -5 55 -3
57 -10 107 -29 225 -6 34 -34 160 -51 229 -12 50 -49 162 -57 172 -4 6 -9 23
-10 38 -1 14 -5 26 -9 26 -7 0 -23 50 -21 63 1 4 -3 7 -10 7 -6 0 -9 3 -5 6 3
3 -3 21 -14 40 -10 19 -19 41 -19 48 0 8 -3 16 -7 18 -5 2 -30 48 -58 103 -27
54 -58 107 -67 117 -10 10 -16 18 -13 18 5 0 -81 132 -107 165 -81 104 -152
185 -160 185 -6 0 -8 3 -5 7 8 7 -168 182 -242 243 -24 19 -52 43 -62 53 -11
9 -23 17 -29 17 -5 0 -10 5 -10 10 0 6 -7 10 -15 10 -8 0 -15 4 -15 9 0 5 -17
20 -37 33 -20 12 -44 28 -52 33 -119 78 -164 105 -176 105 -8 0 -18 7 -23 16
-5 9 -11 15 -13 14 -7 -4 -123 54 -131 65 -4 6 -8 6 -8 1 0 -5 -6 -3 -13 3 -8
6 -17 8 -20 4 -4 -3 -7 -1 -7 5 0 7 -9 12 -20 12 -11 0 -20 4 -20 9 0 5 -10
11 -22 14 -13 2 -63 19 -113 37 -86 30 -201 65 -255 76 -14 3 -33 7 -42 10
-10 3 -30 7 -45 10 -16 2 -39 7 -53 9 -68 13 -158 24 -240 31 -102 7 -300 10
-358 4z"/>
</g>
</svg>
